<svg width="43" height="39" viewBox="0 0 43 39" fill="none" xmlns="http://www.w3.org/2000/svg">
<path d="M41.9989 0.316521C41.4073 -0.0374847 40.658 -0.0986719 40.0057 0.15381L21.492 7.30566L2.97826 0.153886C2.32595 -0.0985202 1.57676 -0.0374089 0.985056 0.316597C0.366071 0.687814 -0.00424487 1.31568 3.67271e-05 1.98685V36.8308C-0.00424487 37.5019 0.366071 38.1298 0.985056 38.501C1.57667 38.8552 2.32595 38.9163 2.97826 38.6637L21.492 31.512L40.0057 38.6637C40.658 38.9163 41.4073 38.8551 41.9989 38.501C42.618 38.1298 42.9883 37.5019 42.9839 36.8308V1.98685C42.9883 1.31568 42.618 0.687814 41.9989 0.316521ZM2.41444 37.474C2.20514 37.557 1.96336 37.537 1.7743 37.4209C1.55627 37.2898 1.42749 37.0673 1.43286 36.8307V1.98685C1.42749 1.75036 1.55627 1.52775 1.7743 1.39674C1.88478 1.33009 2.01432 1.29385 2.14722 1.29248C2.23923 1.29286 2.33015 1.3103 2.41444 1.34366L20.7756 8.43629V30.2439C20.7801 30.2869 20.7896 30.3293 20.8039 30.3705L2.41444 37.474ZM41.5512 36.8308C41.5565 37.0673 41.4278 37.2899 41.2097 37.4209C41.0204 37.5362 40.779 37.5562 40.5696 37.474L22.1801 30.3704C22.1944 30.3292 22.2039 30.2868 22.2083 30.2439V8.43622L40.5695 1.34359C40.7787 1.26018 41.0208 1.2802 41.2096 1.39666C41.4277 1.52775 41.5565 1.75029 41.5511 1.98685V36.8308H41.5512Z" fill="#401B1B"/>
<path d="M18.4739 9.58727L4.86307 4.31874C4.42039 4.14739 3.91197 4.1884 3.50984 4.42784C3.10771 4.66728 2.86576 5.07314 2.86567 5.50819V17.59C2.86282 18.2582 3.42597 18.8175 4.16274 18.8783L17.7742 20.0491C17.8197 20.0529 17.8645 20.0548 17.9092 20.0548C18.2894 20.055 18.654 19.9187 18.9228 19.676C19.1916 19.4333 19.3427 19.1041 19.3427 18.7608V10.7763C19.3434 10.2585 19.0014 9.79047 18.4739 9.58727ZM17.9101 18.7608L4.29849 17.59V13.2057L6.37002 11.3349L10.1731 15.9141C10.4105 16.1999 10.8596 16.2577 11.176 16.0433C11.4924 15.8289 11.5564 15.4233 11.319 15.1375L10.3095 13.9219L12.7875 13.0267L17.9101 16.496V18.7608ZM17.9101 14.8792L13.3248 11.7734C13.1249 11.6381 12.8615 11.6065 12.6294 11.69L9.4191 12.8497L7.02066 9.96159C6.89624 9.81154 6.70583 9.71776 6.49872 9.70441C6.2917 9.6922 6.0887 9.76059 5.94119 9.89237L4.29849 11.376V5.50789L17.91 10.7763V14.8792H17.9101Z" fill="#401B1B"/>
<path d="M18.6265 21.3489H3.58204C3.18636 21.3489 2.86566 21.6384 2.86566 21.9955C2.86566 22.3527 3.18636 22.6422 3.58204 22.6422H18.6265C19.0222 22.6422 19.3429 22.3527 19.3429 21.9955C19.3429 21.6384 19.0222 21.3489 18.6265 21.3489Z" fill="#401B1B"/>
<path d="M18.5586 23.9398L3.51418 25.2338C3.1337 25.2667 2.84885 25.5635 2.86673 25.9083C2.8847 26.2531 3.1991 26.5245 3.58126 26.525C3.60367 26.525 3.62676 26.524 3.64985 26.5222L18.6942 25.2282C19.0873 25.1935 19.3752 24.878 19.3377 24.5229C19.3003 24.1679 18.9518 23.9069 18.5586 23.9398Z" fill="#401B1B"/>
<path d="M39.4019 21.3489H24.3576C23.9619 21.3489 23.6412 21.6384 23.6412 21.9955C23.6412 22.3527 23.9619 22.6422 24.3576 22.6422H39.4019C39.7976 22.6422 40.1182 22.3527 40.1182 21.9955C40.1182 21.6384 39.7976 21.3489 39.4019 21.3489Z" fill="#401B1B"/>
<path d="M24.3566 20.0548C24.379 20.0548 24.4021 20.0539 24.4252 20.052L39.4695 18.758C39.8626 18.7233 40.1504 18.4078 40.113 18.0528C40.0755 17.6977 39.7271 17.4369 39.3337 17.4697L24.2894 18.7637C23.909 18.7966 23.6241 19.0934 23.642 19.4382C23.66 19.7829 23.9744 20.0543 24.3566 20.0548Z" fill="#401B1B"/>
<path d="M39.2676 13.5962L24.2233 16.1842C23.8605 16.2468 23.6098 16.5483 23.6444 16.8804C23.679 17.2126 23.9876 17.4665 24.357 17.4669C24.4023 17.4668 24.4475 17.4631 24.492 17.4555L39.5362 14.8675C39.9249 14.8005 40.1799 14.4616 40.1057 14.1106C40.0315 13.7594 39.6563 13.5292 39.2676 13.5962Z" fill="#401B1B"/>
<path d="M39.47 25.2337L24.4256 23.9397C24.0323 23.9068 23.6838 24.1676 23.6463 24.5227C23.6089 24.8779 23.8968 25.1933 24.2898 25.228L39.3343 26.5221C39.3574 26.524 39.3805 26.5249 39.4029 26.5249C39.785 26.5244 40.0995 26.253 40.1175 25.9082C40.1354 25.5634 39.8505 25.2666 39.47 25.2337Z" fill="#401B1B"/>
</svg>
