<svg width="564" height="467" viewBox="0 0 564 467" fill="none" xmlns="http://www.w3.org/2000/svg">
<g clip-path="url(#clip0)">
<path d="M340.438 446.643C463.908 446.643 564 346.659 564 223.322C564 99.9846 463.908 0 340.438 0C216.968 0 116.875 99.9846 116.875 223.322C116.875 346.659 216.968 446.643 340.438 446.643Z" fill="#F2F2F2"/>
<path d="M546.618 438.262C546.618 447.52 424.254 467 273.309 467C122.365 467 0 447.52 0 438.262C0 429.003 122.365 433.472 273.309 433.472C424.254 433.472 546.618 429.003 546.618 438.262Z" fill="#3F3D56"/>
<path opacity="0.1" d="M546.618 438.262C546.618 447.52 424.254 467 273.309 467C122.365 467 0 447.52 0 438.262C0 429.003 122.365 433.472 273.309 433.472C424.254 433.472 546.618 429.003 546.618 438.262Z" fill="black"/>
<path d="M273.309 455.026C424.254 455.026 546.618 447.52 546.618 438.262C546.618 429.003 424.254 421.498 273.309 421.498C122.365 421.498 0 429.003 0 438.262C0 447.52 122.365 455.026 273.309 455.026Z" fill="#3F3D56"/>
<path d="M432.853 358.879C432.853 396.72 456.618 427.341 485.987 427.341L432.853 358.879Z" fill="#3F3D56"/>
<path d="M485.987 427.341C485.987 389.075 512.508 358.11 545.282 358.11L485.987 427.341Z" fill="#6C63FF"/>
<path d="M452.104 362.309C452.104 398.255 467.259 427.341 485.987 427.341L452.104 362.309Z" fill="#6C63FF"/>
<path d="M485.987 427.341C485.987 378.445 516.641 338.879 554.523 338.879L485.987 427.341Z" fill="#3F3D56"/>
<path d="M474.809 427.824C474.809 427.824 482.344 427.592 484.615 425.977C486.886 424.361 496.207 422.433 496.77 425.023C497.333 427.614 508.094 437.908 499.587 437.977C491.08 438.045 479.82 436.653 477.553 435.274C475.286 433.895 474.809 427.824 474.809 427.824Z" fill="#A8A8A8"/>
<path opacity="0.2" d="M499.739 437.075C491.231 437.144 479.971 435.751 477.705 434.372C475.979 433.322 475.291 429.553 475.061 427.814C474.901 427.821 474.809 427.824 474.809 427.824C474.809 427.824 475.286 433.895 477.553 435.274C479.82 436.653 491.08 438.045 499.587 437.977C502.043 437.957 502.891 437.084 502.844 435.792C502.503 436.573 501.567 437.06 499.739 437.075Z" fill="black"/>
<path d="M343.216 140.888C343.216 140.888 350.883 156.972 347.816 164.631C344.749 172.29 359.317 180.715 359.317 180.715L378.485 169.992V156.206L375.418 150.079C375.418 150.079 363.151 143.186 364.684 132.463C366.218 121.741 343.216 140.888 343.216 140.888Z" fill="#FFB9B9"/>
<path opacity="0.1" d="M343.216 140.888C343.216 140.888 350.883 156.972 347.816 164.631C344.749 172.29 359.317 180.715 359.317 180.715L378.485 169.992V156.206L375.418 150.079C375.418 150.079 363.151 143.186 364.684 132.463C366.218 121.741 343.216 140.888 343.216 140.888Z" fill="black"/>
<path d="M328.648 208.287C328.648 208.287 327.115 225.137 327.115 227.434C327.115 229.732 324.815 237.391 324.815 237.391C324.815 237.391 316.381 276.452 311.014 280.281C305.647 284.111 302.58 307.854 311.014 306.322C319.448 304.79 321.748 284.111 321.748 284.111L339.204 251.183L341.683 211.35L328.648 208.287Z" fill="#FFB9B9"/>
<path d="M334.782 174.587H328.648C328.648 174.587 322.514 211.35 328.648 212.882C334.782 214.414 346.283 214.414 346.283 214.414L334.782 174.587Z" fill="#575A89"/>
<path d="M369.285 411.25L372.352 425.802L378.485 421.207L375.419 408.187L369.285 410.484V411.25Z" fill="#FFB9B9"/>
<path d="M341.683 255.772L337.082 258.836C337.082 258.836 334.782 285.642 340.149 306.322C345.516 327.001 349.35 351.51 349.35 351.51C349.35 351.51 358.551 412.782 360.851 414.313C363.151 415.845 377.719 416.611 378.485 413.548C379.252 410.484 373.118 353.042 373.118 353.042C373.118 353.042 368.518 304.79 372.352 298.663C372.352 298.663 384.619 351.51 388.453 356.871C388.453 356.871 393.82 415.079 396.887 416.611C399.954 418.143 414.521 418.909 415.288 415.845C416.055 412.782 410.688 346.914 408.388 341.553C406.087 336.192 405.321 256.538 399.954 257.304C394.586 258.07 341.683 255.772 341.683 255.772Z" fill="#2F2E41"/>
<path d="M350.883 147.781C360.623 147.781 368.518 139.894 368.518 130.165C368.518 120.436 360.623 112.549 350.883 112.549C341.144 112.549 333.249 120.436 333.249 130.165C333.249 139.894 341.144 147.781 350.883 147.781Z" fill="#FFB9B9"/>
<path d="M357.784 169.226L353.95 162.333C353.95 162.333 349.35 156.206 347.05 157.738C344.749 159.269 344.749 164.631 344.749 164.631C344.749 164.631 327.115 170.758 328.648 179.183C330.182 187.608 340.149 202.16 340.149 202.16C340.149 202.16 341.683 214.414 340.149 217.478C338.616 220.541 335.549 222.839 337.849 225.903C340.149 228.966 340.916 229.732 340.149 233.562C339.382 237.391 337.849 238.923 339.382 240.455C340.916 241.986 338.616 258.07 337.082 258.836C335.549 259.602 386.152 267.261 389.986 264.963C393.82 262.666 404.554 262.666 403.787 260.368C403.02 258.07 399.953 244.284 399.953 241.986C399.953 239.689 399.953 229.732 399.187 228.966C398.42 228.2 399.953 216.712 399.953 216.712L396.12 184.544L408.387 165.397C408.387 165.397 405.321 154.674 390.753 153.142C376.185 151.61 372.155 147.781 372.155 147.781C372.155 147.781 370.818 154.674 367.751 156.206C364.684 157.738 357.784 169.226 357.784 169.226Z" fill="#575A89"/>
<path d="M413.755 189.905L418.355 224.371L408.387 274.154C408.387 274.154 404.554 302.492 396.887 301.727C389.219 300.961 396.887 271.091 396.887 271.091L403.02 224.371C403.02 224.371 393.053 200.628 395.353 197.564C397.653 194.501 413.755 189.905 413.755 189.905Z" fill="#FFB9B9"/>
<path d="M376.185 418.909C376.185 418.909 366.218 413.548 363.918 414.314C361.617 415.079 359.317 425.802 359.317 425.802C359.317 425.802 341.683 438.822 353.183 441.886C364.684 444.95 369.285 438.056 369.285 438.056C369.285 438.056 380.786 431.929 380.786 430.397C380.786 428.866 379.252 418.909 379.252 418.909H376.185Z" fill="#2F2E41"/>
<path d="M399.187 415.079C399.187 415.079 394.586 440.354 397.653 441.886C400.72 443.418 413.755 445.715 415.288 441.886C416.821 438.056 416.821 428.866 416.055 425.802C415.288 422.738 412.988 415.079 412.988 415.079H399.187Z" fill="#2F2E41"/>
<path d="M347.808 102.302C347.121 102.096 346.393 102.074 345.695 102.238C344.815 102.525 344.237 103.338 343.566 103.974C341.807 105.642 339.295 106.164 337.003 106.954C334.711 107.744 332.3 109.142 331.726 111.495C331.587 112.442 331.504 113.396 331.476 114.353C331.134 117.129 329.015 119.629 329.394 122.4C329.641 124.21 330.934 125.747 331.199 127.554C331.495 129.57 330.475 131.668 331.044 133.625C331.601 135.542 333.486 136.711 335.223 137.698C335.968 132.975 336.863 128.278 337.908 123.608C338.026 122.765 338.355 121.964 338.863 121.28C340.405 119.536 343.429 120.529 345.429 119.337C346.189 118.885 346.753 118.138 347.552 117.756C349.863 116.653 352.363 119.098 354.925 119.121C356.055 119.131 357.295 118.682 358.25 119.287C358.672 119.595 359.006 120.006 359.222 120.481C360.135 122.193 360.637 124.116 361.702 125.737C362.766 127.359 364.673 128.682 366.56 128.228C366.272 126.766 367.418 125.45 367.877 124.032C368.666 121.593 367.376 118.944 367.687 116.399C367.979 114.01 369.537 111.205 367.828 109.508C367.243 109.016 366.55 108.668 365.805 108.494C359.754 106.576 354.164 103.361 347.808 102.302Z" fill="#2F2E41"/>
<path d="M400.72 162.333L408.388 165.396C408.388 165.396 418.355 197.564 416.055 197.564C413.755 197.564 393.053 202.925 393.053 200.628C393.053 198.33 394.587 162.333 400.72 162.333Z" fill="#575A89"/>
<path d="M279.303 96.9922H41.9556V174.826H50.946V195.182L71.3243 174.826H279.303V96.9922Z" fill="#3F3D56"/>
<path d="M279.303 306.543H41.9556V384.377H50.946V404.733L71.3243 384.377H279.303V306.543Z" fill="#3F3D56"/>
<path d="M83.9106 202.367H321.258V280.2H312.268V300.556L291.889 280.2H83.9106V202.367Z" fill="#3F3D56"/>
<path opacity="0.3" d="M251.732 109.865H69.5259V117.05H251.732V109.865Z" fill="#6C63FF"/>
<path opacity="0.3" d="M160.629 123.635H69.5259V130.82H160.629V123.635Z" fill="#6C63FF"/>
<path opacity="0.3" d="M79.715 161.953C85.3424 161.953 89.9042 157.397 89.9042 151.775C89.9042 146.154 85.3424 141.597 79.715 141.597C74.0877 141.597 69.5259 146.154 69.5259 151.775C69.5259 157.397 74.0877 161.953 79.715 161.953Z" fill="#6C63FF"/>
<path d="M287.694 214.042H105.488V221.226H287.694V214.042Z" fill="#6C63FF"/>
<path d="M196.591 227.812H105.488V234.997H196.591V227.812Z" fill="#6C63FF"/>
<path d="M115.677 266.13C121.304 266.13 125.866 261.573 125.866 255.952C125.866 250.331 121.304 245.774 115.677 245.774C110.05 245.774 105.488 250.331 105.488 255.952C105.488 261.573 110.05 266.13 115.677 266.13Z" fill="#6C63FF"/>
<path opacity="0.3" d="M251.732 319.416H69.5259V326.601H251.732V319.416Z" fill="#6C63FF"/>
<path opacity="0.3" d="M160.629 333.187H69.5259V340.371H160.629V333.187Z" fill="#6C63FF"/>
<path opacity="0.3" d="M79.715 371.505C85.3424 371.505 89.9042 366.948 89.9042 361.326C89.9042 355.705 85.3424 351.148 79.715 351.148C74.0877 351.148 69.5259 355.705 69.5259 361.326C69.5259 366.948 74.0877 371.505 79.715 371.505Z" fill="#6C63FF"/>
</g>
<defs>
<clipPath id="clip0">
<rect width="564" height="467" fill="white"/>
</clipPath>
</defs>
</svg>
