<svg width="43" height="39" viewBox="0 0 43 39" fill="none" xmlns="http://www.w3.org/2000/svg">
<path d="M43.0001 14.95C43.0001 14.9364 42.9922 14.9246 42.9916 14.9117C42.9871 14.8667 42.9773 14.8222 42.9622 14.7791C42.9523 14.7406 42.9386 14.703 42.9214 14.6666C42.9009 14.6322 42.8769 14.5995 42.8497 14.5691C42.8213 14.5319 42.7887 14.4975 42.7522 14.4665C42.7407 14.4573 42.7358 14.445 42.7236 14.4365L35.8335 9.58162V4.54985C35.8335 3.47291 34.8708 2.59981 33.6834 2.59981H25.9168L22.807 0.409908C22.0386 -0.133055 20.9617 -0.133055 20.1933 0.409908L17.083 2.59981H9.31629C8.1289 2.59981 7.16625 3.47283 7.16625 4.54985V9.58162L0.276809 14.4365C0.264632 14.445 0.259592 14.4573 0.24817 14.4665C0.21172 14.4975 0.17905 14.5319 0.150663 14.5691C0.123451 14.5995 0.0994314 14.6322 0.0790228 14.6666C0.0616378 14.7029 0.0479481 14.7405 0.0382057 14.7791C0.0232563 14.8213 0.0134299 14.8649 0.00881069 14.9091C0.00881069 14.9221 0.000244141 14.9338 0.000244141 14.9474V37.0504C0.00309966 37.2597 0.0434968 37.4671 0.119924 37.6646C-0.0446043 37.8896 -0.0368776 38.1838 0.139157 38.4015C0.315191 38.6192 0.622243 38.7143 0.908299 38.6396C1.27045 38.8743 1.70448 39.0005 2.14961 39.0004H40.8503C41.2972 38.9996 41.7326 38.8716 42.0951 38.6345C42.1563 38.6515 42.2197 38.6609 42.2836 38.6624C42.5454 38.6638 42.7867 38.5344 42.9117 38.3258C43.0367 38.1172 43.025 37.8631 42.8813 37.6647C42.9575 37.4672 42.9976 37.2597 43.0003 37.0504V14.95H43.0001ZM21.0698 1.43566C21.32 1.25528 21.6745 1.25528 21.9247 1.43566L23.5781 2.59981H19.4214L21.0698 1.43566ZM2.32724 37.7004L21.0698 24.4961C21.3203 24.3168 21.6737 24.3168 21.9242 24.4961L40.6724 37.7004H2.32724ZM41.5668 36.6851L22.8056 23.4697C22.0377 22.9275 20.9619 22.9275 20.194 23.4697L1.43279 36.6851V15.9399L13.177 24.2114C13.49 24.4314 13.9403 24.3798 14.1829 24.096C14.4256 23.8121 14.3686 23.4037 14.0557 23.1836L2.12441 14.7804L7.16625 11.2274V16.2501C7.16625 16.6091 7.48716 16.9 7.8829 16.9C8.27873 16.9 8.59955 16.609 8.59955 16.2501V4.54985C8.59955 4.19084 8.92038 3.89986 9.3162 3.89986H33.6833C34.0791 3.89986 34.3999 4.19084 34.3999 4.54985V16.2501C34.3999 16.6091 34.7207 16.9 35.1166 16.9C35.5124 16.9 35.8332 16.609 35.8332 16.2501V11.2274L40.875 14.7804L28.9224 23.1986C28.6098 23.4189 28.5532 23.8273 28.796 24.111C29.0388 24.3946 29.4891 24.4459 29.8019 24.2257L41.5668 15.94V36.6851Z" fill="#401B1B"/>
<path d="M14.3329 8.44841H28.6665C29.0623 8.44841 29.3831 8.15743 29.3831 7.79842C29.3831 7.43942 29.0623 7.14844 28.6665 7.14844H14.3329C13.937 7.14844 13.6162 7.43942 13.6162 7.79842C13.6162 8.15743 13.937 8.44841 14.3329 8.44841Z" fill="#401B1B"/>
<path d="M29.3831 11.6984C29.3831 11.3394 29.0623 11.0485 28.6665 11.0485H14.3329C13.937 11.0485 13.6162 11.3395 13.6162 11.6984C13.6162 12.0575 13.937 12.3484 14.3329 12.3484H28.6665C29.0623 12.3484 29.3831 12.0574 29.3831 11.6984Z" fill="#401B1B"/>
<path d="M29.3832 15.5985C29.3832 15.2395 29.0624 14.9485 28.6665 14.9485H22.2164C21.8206 14.9485 21.4998 15.2395 21.4998 15.5985C21.4998 15.9575 21.8206 16.2485 22.2164 16.2485H28.6665C29.0624 16.2485 29.3832 15.9575 29.3832 15.5985Z" fill="#401B1B"/>
</svg>
