<svg width="44" height="37" viewBox="0 0 44 37" fill="none" xmlns="http://www.w3.org/2000/svg">
<path d="M39.1334 17.8526L31.5165 11.4472C31.3006 11.2713 31.06 11.1181 30.8 10.991V0.616667C30.8 0.276115 30.4716 0 30.0667 0H6.6C4.57581 0.00210775 2.93584 1.38118 2.93333 3.08333V27.75C2.93584 29.4522 4.57581 30.8312 6.6 30.8333H24.2372C24.6197 34.3235 28.0987 36.9955 32.2667 37H40.3333C40.7383 37 41.0667 36.7239 41.0667 36.3833V21.7763C41.0713 20.3039 40.3752 18.8908 39.1334 17.8526ZM4.4 27.75V3.08333C4.4 2.06168 5.38506 1.23333 6.6 1.23333H29.3333V24.4113L24.1846 20.0817C23.2647 19.276 21.8983 18.9517 20.6132 19.2338C19.3277 19.5159 18.3247 20.3605 17.9907 21.4418C17.6566 22.5231 18.044 23.6715 19.0036 24.4441L19.8834 25.1879C19.8888 25.1921 19.8902 25.1981 19.8952 25.2026C19.9006 25.2069 19.9071 25.2081 19.9128 25.2123L23.554 28.2784C23.9676 28.6241 24.2004 29.0941 24.2 29.5846L6.6 29.6C5.38506 29.6 4.4 28.7717 4.4 27.75ZM20.0385 23.5697C19.6235 23.2238 19.39 22.7525 19.39 22.2614C19.39 21.77 19.6235 21.2991 20.0385 20.9531C20.9072 20.2549 22.2754 20.2549 23.144 20.9531L23.5283 21.2756L20.418 23.891L20.0385 23.5697ZM39.6 35.7667H32.2667C28.6233 35.7634 25.6706 33.2804 25.6667 30.2167V29.5846C25.6688 28.7671 25.2828 27.9831 24.5946 27.4058L21.4557 24.7627L24.5667 22.147L31.7482 28.186C32.0361 28.4197 32.4933 28.4163 32.7762 28.1785C33.0591 27.9406 33.063 27.5561 32.7852 27.314L30.8 25.6447V12.5893L38.0968 18.7243C39.0622 19.5322 39.6032 20.6312 39.6 21.7763V35.7667Z" fill="#401B1B"/>
<path d="M6.59999 7.40001C7.00497 7.40001 7.33332 7.12389 7.33332 6.78334V4.31667C7.33332 3.97612 7.66167 3.70001 8.06665 3.70001H11C11.405 3.70001 11.7333 3.42389 11.7333 3.08334C11.7333 2.74279 11.405 2.46667 11 2.46667H8.06665C6.85171 2.46667 5.86665 3.29502 5.86665 4.31667V6.78334C5.86665 7.12389 6.19501 7.40001 6.59999 7.40001Z" fill="#401B1B"/>
<path d="M11 27.1334H8.06665C7.66167 27.1334 7.33332 26.8572 7.33332 26.5167V24.05C7.33332 23.7095 7.00497 23.4333 6.59999 23.4333C6.19501 23.4333 5.86665 23.7095 5.86665 24.05V26.5167C5.86665 27.5383 6.85171 28.3667 8.06665 28.3667H11C11.405 28.3667 11.7333 28.0906 11.7333 27.75C11.7333 27.4095 11.405 27.1334 11 27.1334Z" fill="#401B1B"/>
<path d="M24.2 10.4833C24.2 7.0775 20.9168 4.31665 16.8667 4.31665C12.8165 4.31665 9.53334 7.0775 9.53334 10.4833C9.53334 13.8891 12.8165 16.65 16.8667 16.65C20.915 16.6464 24.1957 13.8876 24.2 10.4833ZM22.6829 9.86665H21.2455C21.1858 8.67306 20.8313 7.50296 20.2039 6.43132C21.5725 7.22865 22.4737 8.47764 22.6829 9.86665ZM16.1333 5.73486V9.86665H13.9591C14.121 7.77998 15.0871 6.24072 16.1333 5.73486ZM16.1333 11.1V15.2318C15.0871 14.7241 14.121 13.1848 13.9591 11.1H16.1333ZM17.6 15.2318V11.1H19.7742C19.6124 13.1867 18.6463 14.7259 17.6 15.2318ZM17.6 9.86665V5.73486C18.6463 6.24253 19.6124 7.78179 19.7742 9.86665H17.6ZM13.5294 6.43132C12.9021 7.50296 12.5476 8.67306 12.4878 9.86665H11.0505C11.2596 8.47764 12.1609 7.22865 13.5294 6.43132ZM11.0505 11.1H12.4878C12.5476 12.2936 12.9021 13.4637 13.5294 14.5353C12.1609 13.738 11.2596 12.489 11.0505 11.1ZM20.2039 14.5353C20.8313 13.4637 21.1858 12.2936 21.2455 11.1H22.6829C22.4737 12.489 21.5725 13.738 20.2039 14.5353Z" fill="#401B1B"/>
</svg>
