<svg width="50" height="46" viewBox="0 0 50 46" fill="none" xmlns="http://www.w3.org/2000/svg">
<path d="M48.5321 14.3932H40.7043C39.8682 14.3932 39.1388 14.9741 39.1388 15.7437V17.2739H30.5283C29.6921 17.2739 28.9627 17.8547 28.9627 18.6243V33.8374H1.56555C1.53847 33.8374 1.4679 33.7725 1.4679 33.7476V30.8669H27.3972V29.5165H1.4679V6.38171C1.4679 6.3568 1.53847 6.38171 1.56555 6.38171H43.8354C43.8625 6.38171 43.8354 6.3568 43.8354 6.38171V12.8631H45.3033V6.38171C45.3033 5.61208 44.672 5.03125 43.8354 5.03125H1.56555C0.72937 5.03125 0 5.61208 0 6.38171V33.7476C0 34.5168 0.72937 35.1879 1.56555 35.1879H18.0038V39.5986H14.8727V40.9491H30.5283V39.5986H27.2995V35.1879H28.9627V36.6282C28.9627 37.3975 29.6921 38.0685 30.5283 38.0685H43.8354C44.672 38.0685 45.3033 37.3975 45.3033 36.6282V31.5871H48.5321C49.3687 31.5871 50 30.9161 50 30.1468V15.7437C50 14.9741 49.3687 14.3932 48.5321 14.3932ZM25.8316 39.5986H19.4717V35.1879H25.8316V39.5986ZM40.7043 15.7437H48.5321C48.5592 15.7437 48.5321 15.7188 48.5321 15.7437V17.2739H40.6067V15.7437C40.6067 15.7188 40.6776 15.7437 40.7043 15.7437ZM40.6067 18.6243H48.5321V27.356H40.6067V18.6243ZM43.8354 36.718H30.5283C30.5016 36.718 30.4306 36.6531 30.4306 36.6282V35.1879H43.8354V36.6282C43.8354 36.6531 43.8625 36.718 43.8354 36.718ZM43.8354 33.8374H30.4306V18.6243C30.4306 18.5994 30.5016 18.6243 30.5283 18.6243H39.1388V30.1468C39.1388 30.9161 39.8682 31.5871 40.7043 31.5871H43.8354V33.8374ZM48.5321 30.2366H40.7043C40.6776 30.2366 40.6067 30.1717 40.6067 30.1468V28.7065H48.5321V30.1468C48.5321 30.1717 48.5592 30.2366 48.5321 30.2366Z" fill="#401B1B"/>
<path d="M18.7866 26.6359H20.3522V27.9863H18.7866V26.6359Z" fill="#401B1B"/>
<path d="M21.9177 26.6359H23.4833V27.9863H21.9177V26.6359Z" fill="#401B1B"/>
<path d="M25.0488 26.6359H26.6144V27.9863H25.0488V26.6359Z" fill="#401B1B"/>
<path d="M4.599 11.4228V9.26233H7.04498V7.91187H3.1311V11.4228H4.599Z" fill="#401B1B"/>
<path d="M31.311 22.2251H32.7789V20.7848H34.4421V19.4343H31.311V22.2251Z" fill="#401B1B"/>
<path d="M41.4871 19.4343V22.2251H42.955V20.7848H44.6182V19.4343H41.4871Z" fill="#401B1B"/>
</svg>
