<svg width="47" height="40" viewBox="0 0 47 40" fill="none" xmlns="http://www.w3.org/2000/svg">
<path d="M21.1055 24.9979L22.495 20.5783H22.9891V19.4064H11.8279L11.4661 18.2547H8.15639V19.4266H10.4086L12.6279 26.4954H12.8757C12.8223 26.6461 12.7932 26.8057 12.7932 26.9714C12.7932 27.8799 13.662 28.6191 14.7295 28.6191C15.7974 28.6191 16.6659 27.8799 16.6659 26.9714C16.6659 26.806 16.6372 26.6461 16.5834 26.4954H17.9242C17.8704 26.6461 17.8417 26.8057 17.8417 26.9714C17.8417 27.8799 18.7102 28.6191 19.778 28.6191C20.8455 28.6191 21.7144 27.8799 21.7144 26.9714C21.7144 26.0626 20.8455 25.3235 19.778 25.3235H13.6854L13.5832 24.9979H21.1055ZM15.8698 23.826V22.7881H17.3974V23.826H15.8698ZM18.7743 23.826V22.7881H20.3751L20.0487 23.826H18.7743ZM21.0696 20.5783L20.7433 21.6162H18.7743V20.5783H21.0696ZM17.3974 20.5783V21.6162H15.8698V20.5783H17.3974ZM14.4929 20.5783V21.6162H12.5236L12.1972 20.5783H14.4929ZM15.2889 26.9711C15.2889 27.2336 15.0379 27.4472 14.7295 27.4472C14.4212 27.4472 14.1702 27.2339 14.1702 26.9711C14.1702 26.7087 14.4212 26.4954 14.7295 26.4954C15.0379 26.4954 15.2889 26.7087 15.2889 26.9711ZM20.337 26.9711C20.337 27.2336 20.086 27.4472 19.7777 27.4472C19.4693 27.4472 19.2183 27.2339 19.2183 26.9711C19.2183 26.7087 19.4693 26.4954 19.7777 26.4954C20.086 26.4954 20.337 26.7087 20.337 26.9711ZM13.2185 23.826L12.8922 22.7881H14.4929V23.826H13.2185Z" fill="#401B1B"/>
<path d="M37.1322 19.0945L35.586 16.8945H34.4417L32.8665 19.0945H31.776V22.6404H38.2768V19.0945H37.1322ZM35.0083 18.3554L35.5279 19.0942H34.479L35.0083 18.3554ZM36.9002 21.4685H33.1534V20.2661H36.9002V21.4685Z" fill="#401B1B"/>
<path d="M44.3142 3.67188H2.68578L0 6.12854V13.7405L2.67932 16.0208H6.30135L8.2922 14.3265L10.283 16.0208H13.9051L15.8959 14.3265L17.8868 16.0208H21.5088L23.5 14.3265L25.4908 16.0208H29.1129L31.1037 14.3265L33.0946 16.0208H36.7166L38.7074 14.3265L40.6983 16.0208H44.3203L47 13.7405V6.12854L44.3142 3.67188ZM5.73121 14.8489H3.24982L1.37695 13.255V8.82935H7.60372V13.255L5.73121 14.8489ZM13.3349 14.8489H10.8535L8.98103 13.255V8.82935H15.2078V13.255L13.3349 14.8489ZM20.9387 14.8489H18.4576L16.5848 13.255V8.82935H22.8115V13.255L20.9387 14.8489ZM28.5427 14.8489H26.0613L24.1885 13.255V8.82935H30.4152V13.255L28.5427 14.8489ZM36.1465 14.8489H33.6651L31.7926 13.255V8.82935H38.0193V13.255L36.1465 14.8489ZM45.623 13.255L43.7502 14.8489H41.2691L39.3963 13.255V8.82935H45.623V13.255ZM1.37695 7.65747V6.58936L3.28532 4.84375H43.7147L45.623 6.58936V7.65747H1.37695Z" fill="#401B1B"/>
<path d="M44.6573 16.5292H46.0343V31.5356H44.6573V16.5292Z" fill="#401B1B"/>
<path d="M1.00948 16.5668H2.38643V31.5356H1.00948V16.5668Z" fill="#401B1B"/>
<path d="M7.01932 16.9974H5.64236L5.64667 30.7925H25.5038L25.4992 16.8228L24.1222 16.8231L24.1265 29.6207H7.02326L7.01932 16.9974Z" fill="#401B1B"/>
<path d="M41.3143 16.9974H39.9374V32.5119H30.1158V16.9974H28.7389V32.5119H0V36.4523H47V32.5119H41.3143V16.9974ZM45.623 33.6841V35.2805H1.37695V33.6841H45.623Z" fill="#401B1B"/>
<path d="M39.0193 31.4249H37.6424V27.4808H39.0193V31.4249ZM39.0193 26.6995H37.6424V25.5276H39.0193V26.6995ZM39.0193 24.7464H37.6424V23.5745H39.0193V24.7464Z" fill="#401B1B"/>
<path d="M22.989 18.1329H17.6709V16.9611H22.989V18.1329ZM16.7529 18.1329H15.376V16.9611H16.7529V18.1329ZM14.458 18.1329H13.0811V16.9611H14.458V18.1329Z" fill="#401B1B"/>
<path d="M43.7871 6.87622H24.2878V5.70435H43.7871V6.87622ZM23.3698 6.87622H21.9929V5.70435H23.3698V6.87622ZM21.0749 6.87622H19.698V5.70435H21.0749V6.87622Z" fill="#401B1B"/>
</svg>
