<svg width="39" height="37" viewBox="0 0 39 37" fill="none" xmlns="http://www.w3.org/2000/svg">
<path d="M28.5672 16.2687C28.3804 15.8204 27.8459 15.6008 27.3732 15.7779C26.9006 15.9552 26.6691 16.4623 26.8559 16.9107C27.3235 18.0326 27.5604 19.2183 27.5604 20.4351C27.5604 25.7206 23.028 30.0207 17.4566 30.0207C11.8849 30.0207 7.35182 25.7206 7.35182 20.4351C7.35182 15.1495 11.8849 10.8494 17.4566 10.8494C18.7436 10.8494 19.9956 11.0756 21.1778 11.5219C21.6498 11.7003 22.1849 11.4814 22.3728 11.0336C22.5608 10.5856 22.3303 10.078 21.8581 9.89981C20.4586 9.3714 18.9776 9.10352 17.4567 9.10352C10.8703 9.10352 5.51166 14.1868 5.51166 20.435C5.51166 26.6832 10.87 31.7665 17.4566 31.7665C24.0425 31.7665 29.4006 26.6833 29.4006 20.4351C29.4006 18.9976 29.1201 17.596 28.5672 16.2687Z" fill="#401B1B"/>
<path d="M34.2397 15.87C34.0999 15.4065 33.5909 15.1386 33.102 15.271C32.6134 15.4036 32.3308 15.8869 32.4705 16.3503C32.8694 17.6729 33.0716 19.0473 33.0716 20.4349C33.0716 28.6041 26.0667 35.2504 17.4565 35.2504C8.84569 35.2504 1.84024 28.6042 1.84024 20.4349C1.84024 12.2656 8.84561 5.61959 17.4565 5.61959C18.9225 5.61959 20.3735 5.81233 21.7692 6.19252C22.2577 6.32549 22.7672 6.05781 22.9074 5.59437C23.0476 5.13093 22.7654 4.64748 22.2769 4.51451C20.7162 4.0893 19.0943 3.87366 17.4565 3.87366C7.83093 3.87373 0 11.3031 0 20.435C0 29.5669 7.83093 36.9963 17.4565 36.9963C27.0814 36.9963 34.9119 29.567 34.9119 20.435C34.9119 18.8847 34.6857 17.3489 34.2397 15.87Z" fill="#401B1B"/>
<path d="M23.8629 19.902C23.8178 19.4218 23.3706 19.0692 22.8647 19.1101C22.3585 19.153 21.9848 19.577 22.03 20.0572C22.0417 20.1815 22.0476 20.3087 22.0476 20.435C22.0476 22.8369 19.9879 24.7909 17.4564 24.7909C14.9241 24.7909 12.8639 22.8368 12.8639 20.435C12.8641 18.0326 14.9242 16.0782 17.4564 16.0782C17.5979 16.0782 17.7364 16.084 17.8682 16.0955C18.3747 16.1396 18.8223 15.7865 18.869 15.3064C18.9156 14.8263 18.5432 14.4013 18.0372 14.3569C17.8495 14.3405 17.6541 14.3322 17.4565 14.3322C13.9096 14.3322 11.0239 17.0698 11.0239 20.4349C11.0239 23.7994 13.9096 26.5366 17.4565 26.5366C21.0028 26.5366 23.888 23.7994 23.888 20.4349C23.8879 20.2571 23.8795 20.0776 23.8629 19.902Z" fill="#401B1B"/>
<path d="M38.859 5.87239C38.5731 5.21752 37.9055 4.79433 37.1583 4.79433H33.9501V1.75065C33.9501 1.04172 33.504 0.408461 32.8137 0.137248C32.1238 -0.133893 31.3367 0.0147575 30.8085 0.515847L25.4478 5.60168C24.9267 6.09605 24.6397 6.75353 24.6397 7.45298V12.3927L17.1619 19.487C16.8026 19.8279 16.8026 20.3806 17.1619 20.7216C17.3415 20.892 17.5771 20.9773 17.8125 20.9773C18.048 20.9773 18.2835 20.892 18.4631 20.7216L25.941 13.6272H31.1477C31.885 13.6272 32.5781 13.3549 33.0991 12.8606L38.4598 7.77464C38.9881 7.27348 39.1448 6.5269 38.859 5.87239ZM26.48 7.45291C26.48 7.21986 26.5756 7.00075 26.7492 6.8362L32.1098 1.75116V5.30576L26.4799 10.647V7.45291H26.48ZM31.7979 11.626C31.627 11.7882 31.3899 11.8813 31.1478 11.8813H27.7813L33.4111 6.54027L37.1581 6.5407L31.7979 11.626Z" fill="#401B1B"/>
</svg>
