<svg width="652" height="466" viewBox="0 0 652 466" fill="none" xmlns="http://www.w3.org/2000/svg">
<g clip-path="url(#clip0)">
<path d="M633.504 16.9454H0V378.962H633.504V16.9454Z" fill="#F1F1F1"/>
<path d="M651.229 0.770264H17.7258V362.787H651.229V0.770264Z" stroke="#3F3D56" stroke-width="2" stroke-miterlimit="10"/>
<path d="M17.7258 20.0931H651.229" stroke="#3F3D56" stroke-width="2" stroke-miterlimit="10"/>
<path d="M32.3688 16.1752C35.3483 16.1752 37.7636 13.7612 37.7636 10.7835C37.7636 7.80569 35.3483 5.39172 32.3688 5.39172C29.3893 5.39172 26.974 7.80569 26.974 10.7835C26.974 13.7612 29.3893 16.1752 32.3688 16.1752Z" fill="#6C63FF"/>
<path d="M48.5532 16.1752C51.5326 16.1752 53.948 13.7612 53.948 10.7835C53.948 7.80569 51.5326 5.39172 48.5532 5.39172C45.5737 5.39172 43.1584 7.80569 43.1584 10.7835C43.1584 13.7612 45.5737 16.1752 48.5532 16.1752Z" fill="#6C63FF"/>
<path d="M64.7376 16.1752C67.7171 16.1752 70.1324 13.7612 70.1324 10.7835C70.1324 7.80569 67.7171 5.39172 64.7376 5.39172C61.7581 5.39172 59.3428 7.80569 59.3428 10.7835C59.3428 13.7612 61.7581 16.1752 64.7376 16.1752Z" fill="#6C63FF"/>
<path d="M405.431 251.348C419.51 237.278 429.098 219.35 432.983 199.833C436.867 180.316 434.873 160.087 427.254 141.702C419.634 123.318 406.731 107.604 390.176 96.5486C373.621 85.4932 354.158 79.5924 334.247 79.5924V180.205L405.431 251.348Z" fill="#3F3D56"/>
<path d="M334.247 79.5923C311.872 79.595 290.135 87.047 272.469 100.772C254.803 114.496 242.215 133.711 236.692 155.382C231.17 177.053 233.028 199.945 241.973 220.443C250.918 240.941 266.44 257.877 286.089 268.577L334.247 180.205V79.5923Z" fill="#6C63FF"/>
<path d="M137.192 265.832H117.915V285.098H137.192V265.832Z" fill="#6C63FF"/>
<path d="M165.037 265.832H145.76V285.098H165.037V265.832Z" fill="#3F3D56"/>
<path d="M192.882 265.832H173.604V285.098H192.882V265.832Z" fill="#575A89"/>
<path d="M530.232 270.114H450.981V273.325H530.232V270.114Z" fill="#3F3D56"/>
<path d="M530.232 279.747H450.981V282.958H530.232V279.747Z" fill="#3F3D56"/>
<path d="M530.232 289.38H450.981V292.591H530.232V289.38Z" fill="#3F3D56"/>
<path d="M485.801 432.28L487.075 442.888L494.292 446.282L502.358 443.737L507.877 446.282L509.576 436.523L499.811 425.491L485.801 432.28Z" fill="#FFB9B9"/>
<path d="M490.896 440.342C490.896 440.342 484.313 432.673 484.208 436.507C484.103 440.342 469.668 453.496 469.668 453.496C469.668 453.496 447.167 460.284 464.574 464.527C481.98 468.771 520.189 456.466 521.463 453.92C522.737 451.374 510.849 431.856 509.576 433.553C508.302 435.25 501.934 441.191 490.896 440.342Z" fill="#2F2E41"/>
<path d="M474.763 314.323C474.763 314.323 472.216 334.266 474.763 337.236C477.31 340.206 476.036 346.146 474.763 346.995C473.489 347.843 476.461 351.238 478.584 352.935C480.706 354.632 483.678 362.27 483.678 362.27C483.678 362.27 495.141 392.396 495.141 395.366C495.141 398.336 500.236 404.7 499.811 406.822C499.387 408.943 502.783 415.732 502.358 417.005C501.934 418.278 507.877 429.734 506.179 431.432C504.481 433.129 481.131 439.069 482.405 435.25C483.678 431.432 484.527 426.764 483.678 426.764C482.829 426.764 479.008 422.097 479.857 420.4C480.706 418.703 454.385 374.15 454.385 374.15L474.763 314.323Z" fill="#2F2E41"/>
<path opacity="0.1" d="M490.896 440.342C490.896 440.342 484.313 432.673 484.208 436.507C484.103 440.342 469.668 453.496 469.668 453.496C469.668 453.496 447.167 460.284 464.574 464.527C481.98 468.771 520.189 456.466 521.463 453.92C522.737 451.374 510.849 431.856 509.576 433.553C508.302 435.25 501.934 441.191 490.896 440.342Z" fill="black"/>
<path opacity="0.1" d="M474.763 314.323C474.763 314.323 472.216 334.266 474.763 337.236C477.31 340.206 476.036 346.146 474.763 346.995C473.489 347.843 476.461 351.238 478.584 352.935C480.706 354.632 483.678 362.27 483.678 362.27C483.678 362.27 495.141 392.396 495.141 395.366C495.141 398.336 500.236 404.7 499.811 406.822C499.387 408.943 502.783 415.732 502.358 417.005C501.934 418.278 507.877 429.734 506.179 431.432C504.481 433.129 481.131 439.069 482.405 435.25C483.678 431.432 484.527 426.764 483.678 426.764C482.829 426.764 479.008 422.097 479.857 420.4C480.706 418.703 454.385 374.15 454.385 374.15L474.763 314.323Z" fill="black"/>
<path d="M431.459 427.013L426.789 438.894L428.912 455.442L442.498 454.593L450.139 447.804V433.378L431.459 427.013Z" fill="#FFB9B9"/>
<path d="M434.006 441.439C434.006 441.439 429.336 426.164 426.789 430.407C425.175 433.132 423.757 435.968 422.544 438.893C422.544 438.893 401.741 452.471 396.222 452.471C390.703 452.471 385.608 459.26 392.825 461.806C400.043 464.352 455.234 467.746 456.083 461.806C456.932 455.866 455.234 436.772 452.686 438.893C450.139 441.015 436.978 445.682 434.006 441.439Z" fill="#2F2E41"/>
<path d="M423.393 253.472C423.393 253.472 414.477 268.747 413.628 270.444C412.779 272.141 408.109 283.173 417.024 287.416C425.94 291.659 433.582 256.442 433.582 256.442L423.393 253.472Z" fill="#FFB9B9"/>
<path d="M432.733 228.862C432.733 228.862 419.147 255.169 421.694 256.018C424.242 256.866 434.431 261.958 434.431 261.958L439.101 235.227L432.733 228.862Z" fill="#575A88"/>
<path opacity="0.1" d="M432.733 228.862C432.733 228.862 419.147 255.169 421.694 256.018C424.242 256.866 434.431 261.958 434.431 261.958L439.101 235.227L432.733 228.862Z" fill="black"/>
<path d="M433.582 250.926C433.582 250.926 430.61 272.99 431.884 277.657C433.157 282.325 431.034 352.335 432.733 356.154C434.431 359.973 435.704 384.582 435.704 387.552C435.704 390.523 432.308 414.708 431.459 416.829C430.61 418.951 428.063 426.164 429.336 429.559C430.61 432.953 448.016 441.439 450.564 438.469C453.111 435.499 450.988 426.164 453.111 425.74C455.234 425.316 457.781 405.373 457.781 405.373L471.791 327.301C471.791 327.301 498.113 261.958 492.169 255.593C486.225 249.229 433.582 250.926 433.582 250.926Z" fill="#2F2E41"/>
<path d="M449.29 100.298C460.779 100.298 470.093 90.9891 470.093 79.5065C470.093 68.024 460.779 58.7156 449.29 58.7156C437.801 58.7156 428.487 68.024 428.487 79.5065C428.487 90.9891 437.801 100.298 449.29 100.298Z" fill="#FFB9B9"/>
<path d="M441.648 96.4789C441.648 96.4789 448.441 114.3 447.592 118.118C446.743 121.937 467.546 111.33 467.546 111.33C467.546 111.33 466.272 90.5386 467.546 85.0226C468.819 79.5066 441.648 96.4789 441.648 96.4789Z" fill="#FFB9B9"/>
<path d="M498.69 212.573C498.597 216.133 498.537 218.255 498.537 218.255C498.537 218.255 499.811 237.773 497.688 244.137C495.565 250.502 495.565 255.169 494.292 259.412C493.918 260.647 488.836 261.309 481.7 261.602C475.153 261.869 466.879 261.831 458.936 261.648C445.783 261.343 433.522 260.638 431.459 260.261C426.789 259.412 432.308 252.199 430.61 248.38C428.912 244.561 433.582 195.766 433.582 195.766C433.582 195.766 433.157 168.186 435.28 157.579C437.403 146.971 445.469 129.999 447.167 127.877C448.865 125.756 447.592 124.483 443.771 121.937C439.95 119.391 443.771 109.632 443.771 109.632C450.988 103.692 469.244 102.843 469.244 102.843C469.244 102.843 497.264 131.696 498.962 137.636C499.989 141.226 499.62 169.901 499.17 192.041C498.996 200.37 498.813 207.778 498.69 212.573Z" fill="#575A88"/>
<path d="M462.876 265.353C462.876 265.353 446.743 298.448 459.479 300.57C472.216 302.691 478.584 270.444 478.584 270.444L462.876 265.353Z" fill="#FFB9B9"/>
<path d="M429.839 68.9683C429.103 65.4024 431.83 62.069 434.702 59.8289C440.956 54.9811 448.651 52.3586 456.565 52.3774C462.133 52.4076 467.879 53.8796 472.087 57.5231C476.995 61.7729 479.234 68.588 478.822 75.0653C478.41 81.5425 475.591 87.6858 471.79 92.9476C469.965 95.4731 467.034 98.0873 464.119 96.9867C462.978 96.4528 461.999 95.6263 461.281 94.5914C459.411 92.2721 457.781 89.769 456.417 87.1205C455.374 85.0939 454.47 82.9577 452.991 81.2227C451.512 79.4878 449.289 78.1829 447.03 78.4944C445.164 78.7518 443.333 80.0647 441.553 79.4479C439.573 78.7616 439.095 76.2309 438.937 74.1422C438.764 71.8528 438.887 69.2008 438.251 67.0363C437.555 67.4075 430.18 70.6769 429.839 68.9683Z" fill="#2F2E41"/>
<path opacity="0.1" d="M498.69 212.573C493.935 229.711 483.029 258.593 482.405 259.836C482.247 260.155 482.001 260.778 481.7 261.602C475.153 261.869 466.879 261.831 458.936 261.648C460.167 258.432 461.602 255.326 461.602 254.32C461.602 252.199 471.791 197.464 471.791 197.464C471.791 197.464 463.725 173.278 456.507 152.911C449.29 132.545 477.947 136.576 477.947 136.576C493.231 132.757 495.99 139.334 495.99 139.334C495.99 139.334 497.336 175.103 499.17 192.041C499.641 196.382 500.142 199.483 500.66 200.434C501.339 201.677 500.422 206.353 498.69 212.573Z" fill="black"/>
<path d="M471.791 122.786C471.791 122.786 452.262 130.848 459.479 151.214C466.696 171.581 474.763 195.766 474.763 195.766C474.763 195.766 464.574 250.502 464.574 252.623C464.574 254.745 458.206 266.201 460.753 268.323C463.3 270.444 480.282 274.687 480.706 272.566C482.008 267.678 483.567 262.862 485.376 258.139C486.226 256.442 506.179 203.404 503.632 198.736C501.085 194.069 498.962 137.636 498.962 137.636C498.962 137.636 487.075 118.967 471.791 122.786Z" fill="#575A88"/>
<path d="M428.552 282.929L353.514 212.555L309.209 304.008C323.979 312.064 340.541 316.274 357.368 316.249C385.167 316.249 410.334 301.136 428.552 282.929Z" fill="#575A89"/>
<path opacity="0.1" d="M428.552 282.929L353.514 212.555L309.209 304.008C323.979 312.064 340.541 316.274 357.368 316.249C385.167 316.249 410.334 301.136 428.552 282.929Z" fill="black"/>
<path d="M422.387 288.32L351.202 217.177L303.044 305.549C322.134 315.929 344.071 319.86 365.58 316.755C387.089 313.65 407.016 303.675 422.387 288.32Z" fill="#575A89"/>
<path d="M305.962 465.23H611.154" stroke="#3F3D56" stroke-width="2" stroke-miterlimit="10"/>
<path d="M568.829 465.969V376.549" stroke="#3F3D56" stroke-width="2" stroke-miterlimit="10"/>
<path d="M568.829 389.194C575.817 389.194 581.482 383.532 581.482 376.549C581.482 369.565 575.817 363.903 568.829 363.903C561.841 363.903 556.177 369.565 556.177 376.549C556.177 383.532 561.841 389.194 568.829 389.194Z" fill="#3F3D56"/>
<path d="M568.829 431.66C568.829 431.66 567.022 392.807 529.968 397.323L568.829 431.66Z" fill="#3F3D56"/>
</g>
<defs>
<clipPath id="clip0">
<rect width="652" height="466" fill="white"/>
</clipPath>
</defs>
</svg>
